<?xml version="1.0" encoding="UTF-8" standalone="no"?>
<svg
   xmlns:dc="http://purl.org/dc/elements/1.1/"
   xmlns:cc="http://creativecommons.org/ns#"
   xmlns:rdf="http://www.w3.org/1999/02/22-rdf-syntax-ns#"
   xmlns:svg="http://www.w3.org/2000/svg"
   xmlns="http://www.w3.org/2000/svg"
   xmlns:sodipodi="http://sodipodi.sourceforge.net/DTD/sodipodi-0.dtd"
   xmlns:inkscape="http://www.inkscape.org/namespaces/inkscape"
   inkscape:version="1.0 (4035a4f, 2020-05-01)"
   sodipodi:docname="demoBackground.svg"
   id="svg1621"
   version="1.1"
   fill="none"
   viewBox="0 0 517.74091 381.41312"
   height="381.41312"
   width="517.74091">
  <metadata
     id="metadata1625">
    <rdf:RDF>
      <cc:Work
         rdf:about="">
        <dc:format>image/svg+xml</dc:format>
        <dc:type
           rdf:resource="http://purl.org/dc/dcmitype/StillImage" />
        <dc:title></dc:title>
      </cc:Work>
    </rdf:RDF>
  </metadata>
  <sodipodi:namedview
     fit-margin-bottom="0"
     fit-margin-right="0"
     fit-margin-left="0"
     fit-margin-top="0"
     inkscape:current-layer="svg1621"
     inkscape:window-maximized="0"
     inkscape:window-y="23"
     inkscape:window-x="0"
     inkscape:cy="223.12634"
     inkscape:cx="257.6197"
     inkscape:zoom="0.76166667"
     showgrid="false"
     id="namedview1623"
     inkscape:window-height="976"
     inkscape:window-width="1880"
     inkscape:pageshadow="2"
     inkscape:pageopacity="0"
     guidetolerance="10"
     gridtolerance="10"
     objecttolerance="10"
     borderopacity="1"
     bordercolor="#666666"
     pagecolor="#ffffff" />
  <path
     style="opacity:0.505747"
     id="path1248"
     fill="#a6e4ff"
     d="m 440.12362,99.824027 v -1.4211 l 1.489,-2.3685 1.489,2.3685 v 1.4211 h 1.488 l 1.985,1.421103 -1.985,1.4211 h -1.488 v 1.421 l -1.489,2.3685 -1.489,-2.3685 v -1.421 h -1.489 l -2.481,-1.4211 2.481,-1.421103 z" />
  <path
     style="opacity:0.505747"
     id="path1252"
     fill="#a6e4ff"
     d="m 349.7563,176.17886 4.512,7.816 h -9.025 z" />
  <path
     style="opacity:0.505747"
     id="path1254"
     fill="#a6e4ff"
     d="m 57.884397,267.46419 -4.512,-7.816 h 9.025 z" />
  <path
     style="opacity:0.505747"
     id="path1258"
     fill="#a6e4ff"
     d="m 511.28992,239.76933 v -1.4211 l 1.489,-2.3685 1.489,2.3685 v 1.4211 h 1.488 l 1.985,1.4211 -1.985,1.4211 h -1.488 v 1.421 l -1.489,2.3685 -1.489,-2.3685 v -1.421 h -1.489 l -2.481,-1.4211 2.481,-1.4211 z" />
  <path
     style="opacity:0.505747"
     id="path1260"
     fill="#a6e4ff"
     d="m 70.589697,353.29052 v -1.422 l 1.4888,-2.368 1.4888,2.368 v 1.422 h 1.4887 l 1.985,1.421 -1.985,1.421 h -1.4887 v 1.421 l -1.4888,2.368 -1.4888,-2.368 v -1.421 h -1.4887 l -2.4813,-1.421 2.4813,-1.421 z" />
  <path
     style="opacity:0.505747"
     id="path1262"
     fill="#a6e4ff"
     d="m 181.37963,175.7824 c -1.0616,0 -2.0979,0.3242 -2.9701,0.9293 -0.8722,0.6051 -1.5388,1.4622 -1.9106,2.4565 -0.3718,0.9943 -0.431,2.0785 -0.1697,3.1074 0.2613,1.0289 0.8307,1.9535 1.6318,2.6499 0.8012,0.6965 1.796,1.1316 2.8512,1.2472 1.0553,0.1156 2.1207,-0.0939 3.0536,-0.6004 0.933,-0.5065 1.6889,-1.2859 2.1667,-2.2339 0.4779,-0.9479 0.6548,-2.0192 0.507,-3.0705 l -2.8204,0.3964 c 0.067,0.4766 -0.0132,0.9623 -0.2298,1.3921 -0.2167,0.4299 -0.5594,0.7832 -0.9824,1.0129 -0.423,0.2297 -0.9061,0.3247 -1.3846,0.2722 -0.4784,-0.0524 -0.9295,-0.2497 -1.2927,-0.5654 -0.3633,-0.3158 -0.6214,-0.735 -0.7399,-1.2015 -0.1185,-0.4665 -0.0916,-0.9581 0.0769,-1.409 0.1686,-0.4508 0.4708,-0.8394 0.8663,-1.1138 0.3955,-0.2743 0.8653,-0.4213 1.3467,-0.4213 z" />
  <path
     style="opacity:0.505747"
     id="path1264"
     fill="#a6e4ff"
     d="m 5.2106407,76.547337 c 1.0616,0 2.0979,-0.324 2.9701,-0.929 0.8722,-0.605 1.5388,-1.462 1.9106003,-2.457 0.3718,-0.994 0.431,-2.078 0.1697,-3.107 -0.2613003,-1.029 -0.8307003,-1.953 -1.6318003,-2.65 -0.8012,-0.696 -1.796,-1.131 -2.8512,-1.247 -1.0553,-0.116 -2.1207,0.094 -3.0536,0.6 -0.933,0.507 -1.6889,1.286 -2.16670001,2.234 -0.4779,0.948 -0.6548,2.02 -0.507,3.071 l 2.82040001,-0.397 c -0.067,-0.476 0.0132,-0.962 0.2298,-1.392 0.2167,-0.43 0.5594,-0.783 0.9824,-1.013 0.423,-0.229 0.9061,-0.324 1.3846,-0.272 0.4784,0.053 0.9295,0.25 1.2927,0.566 0.3633,0.315 0.6214,0.735 0.7399,1.201 0.1185,0.467 0.0916,0.958 -0.0769,1.409 -0.1686,0.451 -0.4708,0.84 -0.8663,1.114 -0.3955,0.274 -0.8653,0.421 -1.3467,0.421 z" />
  <path
     style="opacity:0.505747"
     id="path1266"
     fill="#a6e4ff"
     d="m 306.37443,373.59777 c -0.53,-0.92 -1.329,-1.655 -2.289,-2.108 -0.961,-0.453 -2.036,-0.601 -3.083,-0.426 -1.047,0.175 -2.016,0.666 -2.776,1.406 -0.76,0.741 -1.276,1.697 -1.479,2.739 -0.203,1.042 -0.082,2.121 0.345,3.092 0.428,0.972 1.142,1.79 2.047,2.345 0.905,0.554 1.958,0.819 3.018,0.759 1.06,-0.06 2.076,-0.442 2.913,-1.096 l -1.754,-2.244 c -0.379,0.296 -0.84,0.469 -1.32,0.497 -0.481,0.027 -0.958,-0.093 -1.369,-0.345 -0.41,-0.251 -0.734,-0.622 -0.928,-1.063 -0.193,-0.44 -0.248,-0.929 -0.156,-1.402 0.092,-0.472 0.326,-0.906 0.67,-1.241 0.345,-0.336 0.784,-0.559 1.259,-0.638 0.475,-0.08 0.962,-0.012 1.398,0.193 0.435,0.205 0.797,0.539 1.038,0.956 z" />
  <path
     style="opacity:0.505747;fill:none"
     id="path1470"
     stroke="#c9eeff"
     d="m 25.619697,32.463517 c 7.094,0.314 6.2073,6.908 13.3013,7.222 7.0941,0.314 11.0845,-8.792 17.7352,-8.792 6.6505,0 6.6505,7.85 11.9715,7.85 5.32,0 9.311,-10.99 16.848,-10.99 7.537,0 4.877,24.493 14.188,24.807 9.311003,0.314 7.094003,-29.518 15.962003,-28.89 8.867,0.628 7.981,21.982 14.188,21.668 6.207,-0.314 7.094,-29.518 15.075,-28.89 7.981,0.628 7.094,22.295 15.075,22.295 7.98,0 8.424,-7.85 15.074,-7.85 6.651,0 8.425,10.677 15.075,10.362 6.651,-0.314 9.755,-13.502 15.962,-13.502 6.207,0 7.094,9.42 15.075,9.42 7.981,0 11.971,-6.28 16.848,-6.28 4.877,0 5.321,6.28 11.085,6.28 5.763,0 7.094,-16.957 15.518,-16.643 8.424,0.314 7.094,21.982 15.961,21.982 8.868,0 6.208,-26.064 13.745,-26.064 7.538,0 7.538,26.064 15.518,26.064 7.981,0 8.868,-19.156 16.405,-19.156 7.538,0 7.981,21.354 14.188,21.04 6.208,-0.314 9.311,-23.866 15.962,-23.866 6.651,0 5.321,16.643 12.858,16.643 7.537,0 8.868,-9.106 16.848,-9.42 7.981,-0.315 5.764,7.85 12.858,7.85 7.094,0 8.868,-4.71 16.405,-4.71 7.538,0 6.208,6.28 14.188,6.28 7.981,0 8.868,-6.28 15.962,-6.28 7.094,0 8.868,7.536 16.405,7.222 7.537,-0.314 6.207,-7.222 13.301,-7.222 7.094,0 12.415,0 12.415,0" />
  <path
     style="opacity:0.505747;fill:none"
     id="path1472"
     stroke="#65cafa"
     d="m 25.619697,32.439517 c 9.3109,0 7.9808,11.474 15.9616,11.696 7.9808,0.221 11.5278,-19.271 17.7354,-19.271 6.207,0 8.867,25.251 16.848,25.251 7.981,0 8.868,-36.99 17.292,-37.211 8.424003,-0.222 8.424003,55.595 16.848003,55.595 8.424,0 8.424,-68.2209999 17.292,-67.9989999 8.868,0.221 7.981,49.6149999 16.848,49.6149999 8.868,0 11.085,-25.251 18.622,-25.251 7.538,0 7.981,31.01 16.405,31.01 8.424,0 9.755,-37.654 16.849,-37.433 7.094,0.221 7.98,19.713 17.291,19.935 9.311,0.221 7.538,-10.854 17.292,-10.632 9.754,0.221 8.868,8.195 16.405,8.417 7.537,0.221 9.311,-35.6609999 17.735,-35.6609999 8.424,0 7.538,58.9179999 17.292,58.6959999 9.754,-0.221 7.094,-44.963 16.848,-44.963 9.755,-0.001 9.755,33.003 18.622,33.003 8.868,-10e-4 9.311,-25.694 15.962,-26.137 6.65,-0.443 10.641,31.896 18.178,31.895 7.538,0 8.424,-47.6209999 16.405,-47.3999999 7.981,0.222 9.311,50.2799999 17.735,50.2799999 8.425,0 9.311,-31.01 17.292,-31.01 7.981,0 5.764,13.512 15.962,13.512 10.197,0 12.414,-7.974 20.395,-7.753 7.981,0.222 7.538,7.753 14.632,7.753 7.094,0 12.414,-13.512 20.838,-13.512 8.425,0 5.764,5.759 12.415,5.759" />
  <defs
     id="defs1619">
    <filter
       color-interpolation-filters="sRGB"
       filterUnits="userSpaceOnUse"
       height="132"
       width="168"
       y="37"
       x="223"
       id="filter0_d">
      <feFlood
         id="feFlood1506"
         result="BackgroundImageFix"
         flood-opacity="0" />
      <feColorMatrix
         id="feColorMatrix1508"
         values="0 0 0 0 0 0 0 0 0 0 0 0 0 0 0 0 0 0 127 0"
         type="matrix"
         in="SourceAlpha" />
      <feOffset
         id="feOffset1510"
         dy="16"
         dx="16" />
      <feColorMatrix
         id="feColorMatrix1512"
         values="0 0 0 0 0.927257 0 0 0 0 0.974518 0 0 0 0 0.996179 0 0 0 1 0"
         type="matrix" />
      <feBlend
         id="feBlend1514"
         result="effect1_dropShadow"
         in2="BackgroundImageFix"
         mode="normal" />
      <feBlend
         id="feBlend1516"
         result="shape"
         in2="effect1_dropShadow"
         in="SourceGraphic"
         mode="normal" />
    </filter>
    <filter
       color-interpolation-filters="sRGB"
       filterUnits="userSpaceOnUse"
       height="96"
       width="96"
       y="218"
       x="259"
       id="filter1_d">
      <feFlood
         id="feFlood1519"
         result="BackgroundImageFix"
         flood-opacity="0" />
      <feColorMatrix
         id="feColorMatrix1521"
         values="0 0 0 0 0 0 0 0 0 0 0 0 0 0 0 0 0 0 127 0"
         type="matrix"
         in="SourceAlpha" />
      <feOffset
         id="feOffset1523"
         dy="16"
         dx="16" />
      <feColorMatrix
         id="feColorMatrix1525"
         values="0 0 0 0 0.927257 0 0 0 0 0.974518 0 0 0 0 0.996179 0 0 0 1 0"
         type="matrix" />
      <feBlend
         id="feBlend1527"
         result="effect1_dropShadow"
         in2="BackgroundImageFix"
         mode="normal" />
      <feBlend
         id="feBlend1529"
         result="shape"
         in2="effect1_dropShadow"
         in="SourceGraphic"
         mode="normal" />
    </filter>
    <filter
       color-interpolation-filters="sRGB"
       filterUnits="userSpaceOnUse"
       height="96"
       width="96"
       y="382"
       x="85"
       id="filter2_d">
      <feFlood
         id="feFlood1532"
         result="BackgroundImageFix"
         flood-opacity="0" />
      <feColorMatrix
         id="feColorMatrix1534"
         values="0 0 0 0 0 0 0 0 0 0 0 0 0 0 0 0 0 0 127 0"
         type="matrix"
         in="SourceAlpha" />
      <feOffset
         id="feOffset1536"
         dy="16"
         dx="16" />
      <feColorMatrix
         id="feColorMatrix1538"
         values="0 0 0 0 0.927257 0 0 0 0 0.974518 0 0 0 0 0.996179 0 0 0 1 0"
         type="matrix" />
      <feBlend
         id="feBlend1540"
         result="effect1_dropShadow"
         in2="BackgroundImageFix"
         mode="normal" />
      <feBlend
         id="feBlend1542"
         result="shape"
         in2="effect1_dropShadow"
         in="SourceGraphic"
         mode="normal" />
    </filter>
    <filter
       color-interpolation-filters="sRGB"
       filterUnits="userSpaceOnUse"
       height="96"
       width="96"
       y="382"
       x="205"
       id="filter3_d">
      <feFlood
         id="feFlood1545"
         result="BackgroundImageFix"
         flood-opacity="0" />
      <feColorMatrix
         id="feColorMatrix1547"
         values="0 0 0 0 0 0 0 0 0 0 0 0 0 0 0 0 0 0 127 0"
         type="matrix"
         in="SourceAlpha" />
      <feOffset
         id="feOffset1549"
         dy="16"
         dx="16" />
      <feColorMatrix
         id="feColorMatrix1551"
         values="0 0 0 0 0.927257 0 0 0 0 0.974518 0 0 0 0 0.996179 0 0 0 1 0"
         type="matrix" />
      <feBlend
         id="feBlend1553"
         result="effect1_dropShadow"
         in2="BackgroundImageFix"
         mode="normal" />
      <feBlend
         id="feBlend1555"
         result="shape"
         in2="effect1_dropShadow"
         in="SourceGraphic"
         mode="normal" />
    </filter>
    <filter
       color-interpolation-filters="sRGB"
       filterUnits="userSpaceOnUse"
       height="96"
       width="96"
       y="382"
       x="325"
       id="filter4_d">
      <feFlood
         id="feFlood1558"
         result="BackgroundImageFix"
         flood-opacity="0" />
      <feColorMatrix
         id="feColorMatrix1560"
         values="0 0 0 0 0 0 0 0 0 0 0 0 0 0 0 0 0 0 127 0"
         type="matrix"
         in="SourceAlpha" />
      <feOffset
         id="feOffset1562"
         dy="16"
         dx="16" />
      <feColorMatrix
         id="feColorMatrix1564"
         values="0 0 0 0 0.927257 0 0 0 0 0.974518 0 0 0 0 0.996179 0 0 0 1 0"
         type="matrix" />
      <feBlend
         id="feBlend1566"
         result="effect1_dropShadow"
         in2="BackgroundImageFix"
         mode="normal" />
      <feBlend
         id="feBlend1568"
         result="shape"
         in2="effect1_dropShadow"
         in="SourceGraphic"
         mode="normal" />
    </filter>
    <filter
       color-interpolation-filters="sRGB"
       filterUnits="userSpaceOnUse"
       height="96"
       width="96"
       y="382"
       x="445"
       id="filter5_d">
      <feFlood
         id="feFlood1571"
         result="BackgroundImageFix"
         flood-opacity="0" />
      <feColorMatrix
         id="feColorMatrix1573"
         values="0 0 0 0 0 0 0 0 0 0 0 0 0 0 0 0 0 0 127 0"
         type="matrix"
         in="SourceAlpha" />
      <feOffset
         id="feOffset1575"
         dy="16"
         dx="16" />
      <feColorMatrix
         id="feColorMatrix1577"
         values="0 0 0 0 0.927257 0 0 0 0 0.974518 0 0 0 0 0.996179 0 0 0 1 0"
         type="matrix" />
      <feBlend
         id="feBlend1579"
         result="effect1_dropShadow"
         in2="BackgroundImageFix"
         mode="normal" />
      <feBlend
         id="feBlend1581"
         result="shape"
         in2="effect1_dropShadow"
         in="SourceGraphic"
         mode="normal" />
    </filter>
    <linearGradient
       gradientUnits="userSpaceOnUse"
       y2="152.901"
       x2="375.13501"
       y1="152.901"
       x1="223"
       id="paint0_linear">
      <stop
         id="stop1584"
         stop-color="#CBEEFE" />
      <stop
         id="stop1586"
         stop-color="#8CDAFF"
         offset="1" />
    </linearGradient>
    <linearGradient
       gradientUnits="userSpaceOnUse"
       y2="377.93201"
       x2="339.07101"
       y1="377.93201"
       x1="259"
       id="paint1_linear">
      <stop
         id="stop1589"
         stop-color="#CBEEFE" />
      <stop
         id="stop1591"
         stop-color="#8CDAFF"
         offset="1" />
    </linearGradient>
    <linearGradient
       gradientUnits="userSpaceOnUse"
       y2="541.93201"
       x2="165.071"
       y1="541.93201"
       x1="85"
       id="paint2_linear">
      <stop
         id="stop1594"
         stop-color="#E1F5FE" />
      <stop
         id="stop1596"
         stop-color="#C2EBFF"
         offset="1" />
    </linearGradient>
    <linearGradient
       gradientUnits="userSpaceOnUse"
       y2="541.93201"
       x2="285.07101"
       y1="541.93201"
       x1="205"
       id="paint3_linear">
      <stop
         id="stop1599"
         stop-color="#E1F5FE" />
      <stop
         id="stop1601"
         stop-color="#C2EBFF"
         offset="1" />
    </linearGradient>
    <linearGradient
       gradientUnits="userSpaceOnUse"
       y2="541.93201"
       x2="405.07101"
       y1="541.93201"
       x1="325"
       id="paint4_linear">
      <stop
         id="stop1604"
         stop-color="#E1F5FE" />
      <stop
         id="stop1606"
         stop-color="#C2EBFF"
         offset="1" />
    </linearGradient>
    <linearGradient
       gradientUnits="userSpaceOnUse"
       y2="541.93201"
       x2="525.07098"
       y1="541.93201"
       x1="445"
       id="paint5_linear">
      <stop
         id="stop1609"
         stop-color="#E1F5FE" />
      <stop
         id="stop1611"
         stop-color="#C2EBFF"
         offset="1" />
    </linearGradient>
    <linearGradient
       gradientUnits="userSpaceOnUse"
       y2="377.93201"
       x2="339.07101"
       y1="377.93201"
       x1="259"
       id="paint6_linear">
      <stop
         id="stop1614"
         stop-color="#E1F5FE" />
      <stop
         id="stop1616"
         stop-color="#C2EBFF"
         offset="1" />
    </linearGradient>
  </defs>
</svg>
